<svg width="368" height="298" viewBox="0 0 368 298" fill="none" xmlns="http://www.w3.org/2000/svg">
<path d="M279.063 53.9159C254.734 29.5943 221.124 14.5465 184 14.5465V5.3439C184 3.48698 182.478 1.96153 180.618 2.00074C142.578 2.86326 108.091 18.1783 82.44 42.6711C81.0964 43.9506 81.0964 46.0998 82.408 47.4185L88.9196 53.9373C64.5908 78.2661 49.5466 111.876 49.5466 149.003H40.344C38.4836 149.003 36.9581 150.529 37.0009 152.386C37.8598 190.426 53.1749 224.916 77.6641 250.564C78.9472 251.904 81.0999 251.904 82.4115 250.592L88.9339 244.084C113.266 268.409 146.876 283.457 183.996 283.457V292.66C183.996 294.516 185.522 296.042 187.379 295.999C225.422 295.144 259.905 279.825 285.557 255.336C286.904 254.053 286.9 251.9 285.589 250.588L279.077 244.066C303.402 219.734 318.446 186.128 318.446 149.003H327.652C329.509 149.003 331.035 147.478 330.996 145.618C330.133 107.574 314.822 73.091 290.329 47.4363C289.049 46.0927 286.9 46.0927 285.581 47.4078L279.059 53.9159H279.063Z" fill="#45E0A8"/>
<mask id="mask0_6674_644" style="mask-type:alpha" maskUnits="userSpaceOnUse" x="37" y="2" width="294" height="294">
<path d="M279.063 53.9159C254.734 29.5943 221.124 14.5465 184 14.5465V5.3439C184 3.48698 182.478 1.96153 180.618 2.00074C142.578 2.86326 108.091 18.1783 82.44 42.6711C81.0964 43.9506 81.0964 46.0998 82.408 47.4185L88.9196 53.9373C64.5908 78.2661 49.5466 111.876 49.5466 149.003H40.344C38.4836 149.003 36.9581 150.529 37.0009 152.386C37.8598 190.426 53.1749 224.916 77.6641 250.564C78.9472 251.904 81.0999 251.904 82.4115 250.592L88.9339 244.084C113.266 268.409 146.876 283.457 183.996 283.457V292.66C183.996 294.516 185.522 296.042 187.379 295.999C225.422 295.144 259.905 279.825 285.557 255.336C286.904 254.053 286.9 251.9 285.589 250.588L279.077 244.066C303.402 219.734 318.446 186.128 318.446 149.003H327.652C329.509 149.003 331.035 147.478 330.996 145.618C330.133 107.574 314.822 73.091 290.329 47.4363C289.049 46.0927 286.9 46.0927 285.581 47.4078L279.059 53.9159H279.063Z" fill="white"/>
</mask>
<g mask="url(#mask0_6674_644)">
<path d="M296.181 204.515L314.804 187.136C314.804 187.136 317.402 175.061 319.084 166.657C320.767 158.249 319.847 150.914 319.847 150.914L331.003 149.488L332.532 145.867L331.919 135.734L300.554 136.344L296.181 204.511V204.515Z" fill="black"/>
<path d="M330.447 135.738L49.7568 141.462" stroke="black" stroke-width="1.2" stroke-linecap="round" stroke-linejoin="round"/>
</g>
<path d="M279.063 53.9159C254.734 29.5943 221.124 14.5465 184 14.5465V5.3439C184 3.48698 182.478 1.96153 180.618 2.00074C142.578 2.86326 108.091 18.1783 82.44 42.6711C81.0964 43.9506 81.0964 46.0998 82.408 47.4185L88.9196 53.9373C64.5908 78.2661 49.5466 111.876 49.5466 149.003H40.344C38.4836 149.003 36.9581 150.529 37.0009 152.386C37.8598 190.426 53.1749 224.916 77.6641 250.564C78.9472 251.904 81.0999 251.904 82.4115 250.592L88.9339 244.084C113.266 268.409 146.876 283.457 183.996 283.457V292.66C183.996 294.516 185.522 296.042 187.379 295.999C225.422 295.144 259.905 279.825 285.557 255.336C286.904 254.053 286.9 251.9 285.589 250.588L279.077 244.066C303.402 219.734 318.446 186.128 318.446 149.003H327.652C329.509 149.003 331.035 147.478 330.996 145.618C330.133 107.574 314.822 73.091 290.329 47.4363C289.049 46.0927 286.9 46.0927 285.581 47.4078L279.059 53.9159H279.063Z" stroke="white" stroke-width="2" stroke-linecap="round" stroke-linejoin="round"/>
<path d="M104.819 227.215L127.747 229.343L129.64 222.004L104.819 227.215Z" fill="black" stroke="black" stroke-width="1.2" stroke-linecap="round" stroke-linejoin="round"/>
<path d="M303.926 50.5158C303.926 50.5158 303.926 50.5122 303.923 50.5087C303.627 49.9919 297.995 42.9812 297.888 42.8458L296.274 47.3651L125.242 40.9568C121.87 40.8321 118.99 43.3697 118.694 46.7343L106.466 186.48L101.861 185.379L107.646 192.629C108.672 193.89 110.194 194.742 111.951 194.853L290.739 206.361C294.267 206.589 297.297 203.884 297.472 200.356L304.717 53.8126C304.778 52.6115 304.479 51.4817 303.923 50.5122L303.926 50.5158Z" fill="#45E0A8" stroke="black" stroke-width="1.2" stroke-linecap="round" stroke-linejoin="round"/>
<path d="M299.221 46.9374L298.448 62.5055L291.968 193.48C291.794 197.012 288.764 199.718 285.239 199.486L106.452 187.981C103.059 187.767 100.51 184.798 100.81 181.412L111.812 55.6731L113.195 39.859C113.491 36.498 116.367 33.9532 119.742 34.0815L293.401 40.5897C296.769 40.7144 299.385 43.5693 299.221 46.9374V46.9374Z" fill="white" stroke="black" stroke-width="1.2" stroke-linecap="round" stroke-linejoin="round"/>
<path d="M280.866 130.203L279.872 148.996L279.23 161.079C279.145 162.697 277.765 163.941 276.147 163.859L234.636 161.646C233.014 161.556 231.767 160.163 231.863 158.545L232.561 146.534L233.627 128.267C233.723 126.674 235.071 125.445 236.667 125.509L278.047 127.113C279.679 127.18 280.948 128.567 280.863 130.203H280.866Z" fill="#45E0A8"/>
<mask id="mask1_6674_644" style="mask-type:alpha" maskUnits="userSpaceOnUse" x="231" y="125" width="50" height="39">
<path d="M280.866 130.203L279.872 148.996L279.23 161.079C279.145 162.697 277.765 163.941 276.147 163.859L234.636 161.646C233.014 161.556 231.767 160.163 231.863 158.545L232.561 146.534L233.627 128.267C233.723 126.674 235.071 125.445 236.667 125.509L278.047 127.113C279.679 127.18 280.948 128.567 280.863 130.203H280.866Z" fill="white"/>
</mask>
<g mask="url(#mask1_6674_644)">
<path d="M279.872 148.996L279.23 161.079C279.145 162.697 277.765 163.941 276.147 163.859L234.636 161.645C233.014 161.556 231.767 160.163 231.863 158.545L232.561 146.533L279.872 148.993V148.996Z" fill="white"/>
</g>
<path d="M280.866 130.203L279.872 148.996L279.23 161.079C279.145 162.697 277.765 163.941 276.147 163.859L234.636 161.646C233.014 161.556 231.767 160.163 231.863 158.545L232.561 146.534L233.627 128.267C233.723 126.674 235.071 125.445 236.667 125.509L278.047 127.113C279.679 127.18 280.948 128.567 280.863 130.203H280.866Z" stroke="#45E0A8" stroke-width="1.2" stroke-linecap="round" stroke-linejoin="round"/>
<path d="M270.869 185.051L252.702 184.057C248.981 183.853 246.18 180.592 246.54 176.886L246.547 176.821C246.886 173.318 249.933 170.705 253.447 170.912L271.607 171.967C275.213 172.177 277.972 175.267 277.769 178.878C277.566 182.485 274.479 185.247 270.869 185.051Z" fill="#45E0A8" stroke="#45E0A8" stroke-width="1.2" stroke-linecap="round" stroke-linejoin="round"/>
<path d="M271.001 159.332L261.966 158.837C260.116 158.737 258.722 157.115 258.9 155.269V155.237C259.071 153.494 260.59 152.197 262.336 152.297L271.368 152.821C273.164 152.924 274.533 154.464 274.433 156.256C274.333 158.053 272.797 159.425 271.001 159.329V159.332Z" fill="#45E0A8" stroke="#45E0A8" stroke-width="1.2" stroke-linecap="round" stroke-linejoin="round"/>
<path d="M278.389 116.509L236.852 114.745C235.231 114.659 233.987 113.269 234.08 111.644L235.847 81.3704C235.94 79.7772 237.294 78.5476 238.888 78.6118L280.264 80.2156C281.9 80.2798 283.165 81.6662 283.079 83.3022L281.475 113.736C281.39 115.354 280.007 116.598 278.389 116.509V116.509Z" fill="#45E0A8"/>
<mask id="mask2_6674_644" style="mask-type:alpha" maskUnits="userSpaceOnUse" x="234" y="78" width="50" height="39">
<path d="M278.389 116.509L236.852 114.745C235.231 114.659 233.987 113.269 234.08 111.644L235.847 81.3704C235.94 79.7772 237.294 78.5476 238.888 78.6118L280.264 80.2156C281.9 80.2798 283.165 81.6662 283.079 83.3022L281.475 113.736C281.39 115.354 280.007 116.598 278.389 116.509V116.509Z" fill="white"/>
</mask>
<g mask="url(#mask2_6674_644)">
<path d="M281.975 102.263L281.333 114.346C281.247 115.964 279.868 117.208 278.25 117.126L236.739 114.912C235.117 114.823 233.869 113.43 233.966 111.812L234.664 99.8005L281.975 102.26V102.263Z" fill="white"/>
</g>
<path d="M278.389 116.509L236.852 114.745C235.231 114.659 233.987 113.269 234.08 111.644L235.847 81.3704C235.94 79.7772 237.294 78.5476 238.888 78.6118L280.264 80.2156C281.9 80.2798 283.165 81.6662 283.079 83.3022L281.475 113.736C281.39 115.354 280.007 116.598 278.389 116.509V116.509Z" stroke="#45E0A8" stroke-width="1.2" stroke-linecap="round" stroke-linejoin="round"/>
<path d="M223.398 126.977L222.393 146.006L221.769 157.857C221.684 159.475 220.304 160.715 218.686 160.63L177.171 158.416C175.549 158.327 174.309 156.941 174.402 155.316L175.09 143.543L176.166 125.045C176.255 123.449 177.61 122.219 179.206 122.283L220.579 123.891C222.211 123.955 223.48 125.341 223.394 126.974L223.398 126.977Z" fill="#45E0A8"/>
<mask id="mask3_6674_644" style="mask-type:alpha" maskUnits="userSpaceOnUse" x="174" y="122" width="50" height="39">
<path d="M223.398 126.977L222.393 146.006L221.769 157.857C221.684 159.475 220.304 160.715 218.686 160.63L177.171 158.416C175.549 158.327 174.309 156.941 174.402 155.316L175.09 143.543L176.166 125.045C176.255 123.449 177.61 122.219 179.206 122.283L220.579 123.891C222.211 123.955 223.48 125.341 223.394 126.974L223.398 126.977Z" fill="white"/>
</mask>
<g mask="url(#mask3_6674_644)">
<path d="M175.09 143.547L222.393 146.006L221.769 157.857C221.684 159.475 220.304 160.715 218.686 160.63L177.171 158.416C175.549 158.327 174.309 156.941 174.402 155.316L175.09 143.543V143.547Z" fill="white"/>
</g>
<path d="M223.398 126.977L222.393 146.006L221.769 157.857C221.684 159.475 220.304 160.715 218.686 160.63L177.171 158.416C175.549 158.327 174.309 156.941 174.402 155.316L175.09 143.543L176.166 125.045C176.255 123.449 177.61 122.219 179.206 122.283L220.579 123.891C222.211 123.955 223.48 125.341 223.394 126.974L223.398 126.977Z" stroke="#45E0A8" stroke-width="1.2" stroke-linecap="round" stroke-linejoin="round"/>
<path d="M220.279 113.729L179.349 112.076C177.748 111.99 176.522 110.618 176.615 109.021L178.358 79.1715C178.451 77.5997 179.784 76.3879 181.355 76.4485L222.15 78.0309C223.761 78.0951 225.012 79.4637 224.927 81.0747L223.319 110.996C223.234 112.592 221.872 113.815 220.279 113.729V113.729Z" fill="#45E0A8"/>
<mask id="mask4_6674_644" style="mask-type:alpha" maskUnits="userSpaceOnUse" x="176" y="76" width="49" height="38">
<path d="M220.279 113.729L179.349 112.076C177.748 111.99 176.522 110.618 176.615 109.021L178.358 79.1715C178.451 77.5997 179.784 76.3879 181.355 76.4485L222.15 78.0309C223.761 78.0951 225.012 79.4637 224.927 81.0747L223.319 110.996C223.234 112.592 221.872 113.815 220.279 113.729V113.729Z" fill="white"/>
</mask>
<g mask="url(#mask4_6674_644)">
<path d="M176.633 96.9706L223.936 99.4299L223.312 111.281C223.227 112.899 221.848 114.139 220.229 114.054L178.714 111.84C177.093 111.751 175.852 110.365 175.945 108.739L176.633 96.967V96.9706Z" fill="white"/>
</g>
<path d="M220.279 113.729L179.349 112.076C177.748 111.99 176.522 110.618 176.615 109.021L178.358 79.1715C178.451 77.5997 179.784 76.3879 181.355 76.4485L222.15 78.0309C223.761 78.0951 225.012 79.4637 224.927 81.0747L223.319 110.996C223.234 112.592 221.872 113.815 220.279 113.729V113.729Z" stroke="#45E0A8" stroke-width="1.2" stroke-linecap="round" stroke-linejoin="round"/>
<path d="M164.707 123.93L163.702 142.955L163.079 154.813C162.993 156.431 161.614 157.672 159.996 157.586L118.481 155.373C116.859 155.284 115.619 153.897 115.711 152.272L116.531 141.455L118.003 122.002C118.099 120.405 119.446 119.175 121.043 119.239L161.892 120.847C163.524 120.911 164.796 122.297 164.707 123.93V123.93Z" fill="#45E0A8"/>
<mask id="mask5_6674_644" style="mask-type:alpha" maskUnits="userSpaceOnUse" x="115" y="119" width="50" height="39">
<path d="M164.707 123.93L163.702 142.955L163.079 154.813C162.993 156.431 161.614 157.672 159.996 157.586L118.481 155.373C116.859 155.284 115.619 153.897 115.711 152.272L116.531 141.455L118.003 122.002C118.099 120.405 119.446 119.175 121.043 119.239L161.892 120.847C163.524 120.911 164.796 122.297 164.707 123.93V123.93Z" fill="white"/>
</mask>
<g mask="url(#mask5_6674_644)">
<path d="M116.859 140.517L163.706 142.955L163.082 154.813C162.997 156.431 161.617 157.672 159.999 157.586L118.484 155.373C116.862 155.284 115.622 153.897 115.715 152.272L116.535 141.455L116.859 140.514V140.517Z" fill="white"/>
</g>
<path d="M164.707 123.93L163.702 142.955L163.079 154.813C162.993 156.431 161.614 157.672 159.996 157.586L118.481 155.373C116.859 155.284 115.619 153.897 115.711 152.272L116.531 141.455L118.003 122.002C118.099 120.405 119.446 119.175 121.043 119.239L161.892 120.847C163.524 120.911 164.796 122.297 164.707 123.93V123.93Z" stroke="#45E0A8" stroke-width="1.2" stroke-linecap="round" stroke-linejoin="round"/>
<path d="M162.213 111.733L121.749 109.52C120.127 109.434 118.883 108.044 118.976 106.419L121.792 76.1453C121.884 74.5521 123.239 73.3225 124.832 73.3867L164.105 74.9905C165.741 75.0547 167.006 76.4411 166.921 78.0771L165.292 108.957C165.206 110.575 163.824 111.819 162.205 111.73L162.213 111.733Z" fill="#45E0A8"/>
<mask id="mask6_6674_644" style="mask-type:alpha" maskUnits="userSpaceOnUse" x="118" y="73" width="49" height="39">
<path d="M162.213 111.733L121.749 109.52C120.127 109.434 118.883 108.044 118.976 106.419L121.792 76.1453C121.884 74.5521 123.239 73.3225 124.832 73.3867L164.105 74.9905C165.741 75.0547 167.006 76.4411 166.921 78.0771L165.292 108.957C165.206 110.575 163.824 111.819 162.205 111.73L162.213 111.733Z" fill="white"/>
</mask>
<g mask="url(#mask6_6674_644)">
<path d="M119.382 94.6647L166.229 97.1026L165.606 108.96C165.52 110.579 164.141 111.819 162.523 111.733L121.008 109.52C119.386 109.431 118.146 108.044 118.238 106.419L119.058 95.6021L119.382 94.6611V94.6647Z" fill="white"/>
</g>
<path d="M162.213 111.733L121.749 109.52C120.127 109.434 118.883 108.044 118.976 106.419L121.792 76.1453C121.884 74.5521 123.239 73.3225 124.832 73.3867L164.105 74.9905C165.741 75.0547 167.006 76.4411 166.921 78.0771L165.292 108.957C165.206 110.575 163.824 111.819 162.205 111.73L162.213 111.733Z" stroke="#45E0A8" stroke-width="1.2" stroke-linecap="round" stroke-linejoin="round"/>
<path d="M299.221 46.9372L298.448 62.5054L111.812 55.6908V55.6765L113.195 39.8624C113.491 36.5015 116.367 33.9567 119.742 34.085L293.401 40.5931C296.769 40.7178 299.385 43.5727 299.221 46.9408V46.9372Z" fill="#45E0A8" stroke="black" stroke-width="1.2" stroke-linecap="round" stroke-linejoin="round"/>
<path d="M299.229 45.1516L303.926 50.5156L304.671 52.7147L297.357 201.307L296.224 203.834L294.969 205.032L290.536 197.233L291.78 194.756L299.229 54.7071L299.745 47.3115L299.229 45.1516Z" fill="black"/>
<path d="M289.58 198.263L293.864 205.769L292.175 206.293L288.001 199.04L289.58 198.263Z" fill="black"/>
<path d="M273 112.343L263.965 111.847C262.115 111.748 260.722 110.126 260.9 108.28V108.248C261.071 106.505 262.589 105.207 264.336 105.307L273.367 105.831C275.164 105.934 276.532 107.474 276.432 109.267C276.333 111.063 274.796 112.435 273 112.339V112.343Z" fill="#45E0A8" stroke="#45E0A8" stroke-width="1.2" stroke-linecap="round" stroke-linejoin="round"/>
<path d="M212.891 155.808L203.856 155.312C202.006 155.212 200.613 153.591 200.791 151.744V151.712C200.962 149.97 202.48 148.672 204.227 148.772L213.258 149.296C215.054 149.399 216.423 150.939 216.323 152.732C216.223 154.528 214.687 155.9 212.891 155.804V155.808Z" fill="#45E0A8" stroke="#45E0A8" stroke-width="1.2" stroke-linecap="round" stroke-linejoin="round"/>
<path d="M154.354 153.038L145.319 152.543C143.469 152.443 142.075 150.821 142.253 148.975V148.943C142.424 147.2 143.943 145.903 145.689 146.002L154.721 146.526C156.517 146.63 157.886 148.169 157.786 149.962C157.686 151.759 156.15 153.131 154.354 153.034V153.038Z" fill="#45E0A8" stroke="#45E0A8" stroke-width="1.2" stroke-linecap="round" stroke-linejoin="round"/>
<path d="M156.645 107.036L147.61 106.54C145.761 106.44 144.367 104.819 144.545 102.973V102.94C144.716 101.198 146.235 99.9002 147.981 100L157.012 100.524C158.809 100.627 160.177 102.167 160.078 103.96C159.978 105.756 158.442 107.128 156.645 107.032V107.036Z" fill="#45E0A8" stroke="#45E0A8" stroke-width="1.2" stroke-linecap="round" stroke-linejoin="round"/>
<path d="M214.887 108.822L205.852 108.326C204.002 108.226 202.608 106.605 202.787 104.758V104.726C202.958 102.983 204.476 101.686 206.222 101.786L215.254 102.31C217.05 102.413 218.419 103.953 218.319 105.746C218.219 107.542 216.683 108.914 214.887 108.818V108.822Z" fill="#45E0A8" stroke="#45E0A8" stroke-width="1.2" stroke-linecap="round" stroke-linejoin="round"/>
<path d="M128.685 45.0954C128.743 43.0058 126.974 41.261 124.733 41.1984C122.492 41.1358 120.627 42.7791 120.569 44.8687C120.511 46.9584 122.28 48.7031 124.521 48.7657C126.762 48.8283 128.627 47.1851 128.685 45.0954Z" fill="black" stroke="black" stroke-width="1.2" stroke-linecap="round" stroke-linejoin="round"/>
<path d="M140.528 45.6208C140.586 43.5312 138.817 41.7864 136.575 41.7238C134.334 41.6612 132.47 43.3045 132.412 45.3941C132.353 47.4837 134.123 49.2285 136.364 49.2911C138.605 49.3537 140.469 47.7104 140.528 45.6208Z" fill="#45E0A8" stroke="white" stroke-width="1.2" stroke-linecap="round" stroke-linejoin="round"/>
<path d="M152.792 46.2636C152.85 44.174 151.081 42.4292 148.84 42.3666C146.598 42.304 144.734 43.9473 144.676 46.0369C144.618 48.1266 146.387 49.8713 148.628 49.9339C150.869 49.9965 152.734 48.3533 152.792 46.2636Z" fill="white" stroke="white" stroke-width="1.2" stroke-linecap="round" stroke-linejoin="round"/>
<path d="M301.955 135.111C301.955 135.111 297.603 203.549 297.051 204.18" stroke="#45E0A8" stroke-width="1.2" stroke-linecap="round" stroke-linejoin="round"/>
<path d="M171.604 212.659L107.029 227.015C102.495 228.024 97.9726 225.265 96.7929 220.775L62.0604 88.538C61.2085 85.2946 60.4031 77.9383 69.2599 74.5559L132.331 70.3894C134.769 69.9796 137.128 71.4622 137.816 73.8395L175.845 205.509C176.758 208.671 174.815 211.95 171.6 212.663L171.604 212.659Z" fill="#45E0A8"/>
<mask id="mask7_6674_644" style="mask-type:alpha" maskUnits="userSpaceOnUse" x="61" y="70" width="116" height="158">
<path d="M171.604 212.659L107.029 227.015C102.495 228.024 97.9726 225.265 96.7929 220.775L62.0604 88.538C61.2085 85.2946 60.4031 77.9383 69.2599 74.5559L132.331 70.3894C134.769 69.9796 137.128 71.4622 137.816 73.8395L175.845 205.509C176.758 208.671 174.815 211.95 171.6 212.663L171.604 212.659Z" fill="white"/>
</mask>
<g mask="url(#mask7_6674_644)">
<path d="M65.8632 76.4343C64.0847 76.4201 98.1257 223.865 98.9883 224.635C99.8508 225.401 97.8371 224.742 96.7963 220.775C95.7556 216.808 62.2349 89.2011 62.2349 89.2011C62.2349 89.2011 60.9661 83.9547 62.1743 81.1283C63.6 77.7923 65.8632 76.4343 65.8632 76.4343V76.4343Z" fill="white"/>
</g>
<path d="M171.604 212.659L107.029 227.015C102.495 228.024 97.9726 225.265 96.7929 220.775L62.0604 88.538C61.2085 85.2946 60.4031 77.9383 69.2599 74.5559L132.331 70.3894C134.769 69.9796 137.128 71.4622 137.816 73.8395L175.845 205.509C176.758 208.671 174.815 211.95 171.6 212.663L171.604 212.659Z" stroke="black" stroke-width="1.2" stroke-linecap="round" stroke-linejoin="round"/>
<path d="M175.204 205.499L110.629 219.855C106.095 220.864 101.572 218.105 100.392 213.614L65.6564 81.3778C64.8046 78.1344 66.9181 74.859 70.2256 74.3029L135.927 63.2256C138.365 62.8157 140.724 64.2984 141.412 66.6757L179.441 198.346C180.354 201.507 178.411 204.786 175.197 205.499H175.204Z" fill="black" stroke="black" stroke-width="1.2" stroke-linecap="round" stroke-linejoin="round"/>
<path d="M171.932 202.861L112.101 216.162C107.899 217.096 103.711 214.541 102.617 210.378L69.1137 83.5017C68.326 80.4971 70.2827 77.4605 73.3479 76.9473L134.223 66.6861C136.483 66.3048 138.671 67.6805 139.306 69.8832L175.863 196.235C176.708 199.165 174.908 202.202 171.932 202.865V202.861Z" fill="#45E0A8" stroke="black" stroke-width="1.2" stroke-linecap="round" stroke-linejoin="round"/>
<path d="M69.7909 96.5073C69.7909 96.5073 65.4676 97.5766 65.4997 101.629" stroke="black" stroke-width="1.2" stroke-linecap="round" stroke-linejoin="round"/>
<path d="M98.9884 207.79C98.9884 207.79 94.7257 208.959 94.7577 213.008" stroke="black" stroke-width="1.2" stroke-linecap="round" stroke-linejoin="round"/>
<path d="M68.939 105.304L71.637 115.305" stroke="black" stroke-width="1.2" stroke-linecap="round" stroke-linejoin="round"/>
<path d="M72.9094 120.394L75.6075 130.395" stroke="black" stroke-width="1.2" stroke-linecap="round" stroke-linejoin="round"/>
<path d="M79.5565 89.9922C82.3694 89.9922 84.6497 87.7119 84.6497 84.8991C84.6497 82.0862 82.3694 79.8059 79.5565 79.8059C76.7437 79.8059 74.4634 82.0862 74.4634 84.8991C74.4634 87.7119 76.7437 89.9922 79.5565 89.9922Z" fill="white"/>
<path d="M79.5566 88.6734C81.6412 88.6734 83.3311 86.9835 83.3311 84.8989C83.3311 82.8144 81.6412 81.1245 79.5566 81.1245C77.4721 81.1245 75.7822 82.8144 75.7822 84.8989C75.7822 86.9835 77.4721 88.6734 79.5566 88.6734Z" fill="black"/>
<path d="M87.9253 74.488L91.5857 76.434L116.189 72.1784L118.819 69.2808L87.9253 74.488Z" fill="black"/>
<path d="M135.571 78.9041C135.571 78.9041 135.539 78.897 135.524 78.897C135.218 78.8721 134.986 78.701 134.908 78.4372C134.615 77.4678 134.323 76.4948 134.031 75.5253C133.707 74.4525 133.386 73.3797 133.061 72.3069C132.955 71.9505 133.133 71.7046 133.536 71.6369C133.824 71.587 134.07 71.6369 134.273 71.8578C134.302 71.8899 134.33 71.9291 134.355 71.9648C134.993 74.089 135.635 76.2132 136.273 78.3339C136.266 78.3873 136.266 78.4408 136.255 78.4943C136.216 78.6725 136.084 78.7794 135.906 78.8542L135.571 78.9041V78.9041Z" fill="white"/>
<path d="M133.532 79.2143C133.432 79.1929 133.329 79.1822 133.232 79.143C133.033 79.0646 132.919 78.9185 132.865 78.7367C132.552 77.696 132.238 76.6552 131.928 75.6181C131.753 75.0335 131.575 74.4455 131.4 73.8609C131.293 73.5081 131.472 73.2515 131.867 73.198C131.985 73.1802 132.117 73.1695 132.234 73.198C132.502 73.2515 132.659 73.4154 132.73 73.6435C133.058 74.7342 133.386 75.8212 133.714 76.9118C133.867 77.4251 134.024 77.9419 134.177 78.4551C134.287 78.8258 134.223 78.9826 133.867 79.1644L133.532 79.2143Z" fill="white"/>
<path d="M131.493 79.5243C131.408 79.5065 131.318 79.5029 131.24 79.4744C131.019 79.396 130.887 79.2498 130.827 79.0503C130.531 78.0666 130.235 77.0793 129.939 76.0956C129.832 75.7356 129.736 75.3756 129.611 75.0228C129.483 74.6628 129.686 74.3492 130.121 74.3064C130.31 74.2886 130.481 74.2993 130.648 74.3991C130.802 74.4917 130.891 74.6165 130.934 74.7697C131.294 75.9708 131.657 77.172 132.017 78.3731C132.063 78.5299 132.11 78.6831 132.156 78.84C132.242 79.1287 132.138 79.3354 131.846 79.4601C131.839 79.4601 131.832 79.4708 131.825 79.4744L131.49 79.5243H131.493Z" fill="white"/>
<path d="M129.437 79.838C129.405 79.8344 129.376 79.8273 129.344 79.8238C129.07 79.7917 128.874 79.642 128.802 79.4068C128.499 78.3981 128.193 77.3895 127.89 76.3808C127.804 76.1028 127.918 75.8818 128.218 75.7963C128.368 75.7535 128.539 75.7357 128.699 75.75C128.959 75.7678 129.148 75.9317 129.216 76.1527C129.522 77.1649 129.825 78.1771 130.128 79.1893C130.207 79.4531 130.11 79.6455 129.84 79.7596C129.825 79.7667 129.815 79.7739 129.804 79.781L129.433 79.838H129.437Z" fill="white"/>
<path d="M126.086 77.4643C126.108 77.3716 126.115 77.2754 126.158 77.1898C126.279 76.9439 126.65 76.8833 126.913 76.9154C127.184 76.951 127.384 77.1292 127.462 77.3894C127.662 78.0559 127.854 78.7188 128.065 79.3818C128.154 79.6633 128.125 79.9378 127.751 80.091L127.416 80.1409C127.259 80.1267 127.102 80.0946 126.981 79.9912C126.91 79.9306 126.853 79.8558 126.789 79.7881C126.553 79.0111 126.322 78.2341 126.086 77.4571V77.4643Z" fill="white"/>
<path d="M120.238 207.487L150.013 200.972" stroke="white" stroke-width="1.2" stroke-linecap="round" stroke-linejoin="round"/>
<path d="M77.7139 116.071C77.7139 116.071 87.1125 116.566 98.9561 115.002C109.998 113.54 118.972 111.181 118.972 111.181L132.847 151.684C132.847 151.684 123.16 155.697 107.057 158.217C93.9948 160.263 89.4826 160.64 89.4826 160.64L77.7139 116.071V116.071Z" fill="white"/>
<mask id="mask8_6674_644" style="mask-type:alpha" maskUnits="userSpaceOnUse" x="77" y="111" width="56" height="50">
<path d="M77.7139 116.071C77.7139 116.071 87.1125 116.566 98.9561 115.002C109.998 113.54 118.972 111.181 118.972 111.181L132.847 151.684C132.847 151.684 123.16 155.697 107.057 158.217C93.9948 160.263 89.4826 160.64 89.4826 160.64L77.7139 116.071V116.071Z" fill="white"/>
</mask>
<g mask="url(#mask8_6674_644)">
<path d="M83.3274 140.777C102.93 152.14 129.18 147.428 129.18 147.428L133.535 151.68C133.535 151.68 115.932 156.606 103.835 158.712C91.7388 160.818 86.9985 160.163 86.9985 160.163L83.331 140.777H83.3274Z" fill="#45E0A8"/>
</g>
<path d="M77.7139 116.071C77.7139 116.071 87.1125 116.566 98.9561 115.002C109.998 113.54 118.972 111.181 118.972 111.181L132.847 151.684C132.847 151.684 123.16 155.697 107.057 158.217C93.9948 160.263 89.4826 160.64 89.4826 160.64L77.7139 116.071V116.071Z" stroke="black" stroke-width="1.2" stroke-linecap="round" stroke-linejoin="round"/>
<path d="M191.46 113.733C193.445 114.082 200.299 116.228 189.321 124.094C178.344 131.956 176.608 132.455 176.608 132.455" fill="#45E0A8"/>
<path d="M191.46 113.733C193.445 114.082 200.299 116.228 189.321 124.094C178.344 131.956 176.608 132.455 176.608 132.455" stroke="black" stroke-width="1.2" stroke-linecap="round" stroke-linejoin="round"/>
<path d="M138.867 103.518C138.867 103.518 159.935 94.1372 170.214 94.1372C180.992 94.1372 191.225 101.123 192.686 107.357C194.029 113.088 190.847 117.404 190.102 118.552C189.36 119.699 177.667 131.999 169.53 135.738C161.393 139.477 152.048 144.256 152.048 144.256C152.048 144.256 144.028 140.952 139.21 125.43C135.367 113.052 138.867 103.518 138.867 103.518V103.518Z" fill="#45E0A8"/>
<mask id="mask9_6674_644" style="mask-type:alpha" maskUnits="userSpaceOnUse" x="137" y="94" width="57" height="51">
<path d="M138.867 103.518C138.867 103.518 159.935 94.1372 170.214 94.1372C180.992 94.1372 191.225 101.123 192.686 107.357C194.029 113.088 190.847 117.404 190.102 118.552C189.36 119.699 177.667 131.999 169.53 135.738C161.393 139.477 152.048 144.256 152.048 144.256C152.048 144.256 144.028 140.952 139.21 125.43C135.367 113.052 138.867 103.518 138.867 103.518V103.518Z" fill="white"/>
</mask>
<g mask="url(#mask9_6674_644)">
<path d="M138.158 107.456C138.158 107.456 148.352 103.322 157.454 99.6402C169.205 94.8821 177.225 95.0924 177.225 95.0924C177.225 95.0924 178.882 93.5277 167.712 94.294C156.542 95.0568 138.536 103.664 138.536 103.664L138.162 107.46L138.158 107.456Z" fill="white"/>
</g>
<path d="M138.867 103.518C138.867 103.518 159.935 94.1372 170.214 94.1372C180.992 94.1372 191.225 101.123 192.686 107.357C194.029 113.088 190.847 117.404 190.102 118.552C189.36 119.699 177.667 131.999 169.53 135.738C161.393 139.477 152.048 144.256 152.048 144.256C152.048 144.256 144.028 140.952 139.21 125.43C135.367 113.052 138.867 103.518 138.867 103.518V103.518Z" stroke="black" stroke-width="1.2" stroke-linecap="round" stroke-linejoin="round"/>
<path d="M118.972 111.177C118.972 111.177 117.486 122.187 121.275 135.021C124.974 147.553 132.848 151.68 132.848 151.68C132.848 151.68 138.864 149.617 143.223 147.956C147.578 146.295 152.048 144.256 152.048 144.256C152.048 144.256 142.303 136.376 139.209 125.43C136.116 114.485 138.867 103.518 138.867 103.518C138.867 103.518 131.073 106.861 126.717 108.465C122.362 110.069 118.976 111.177 118.976 111.177H118.972Z" fill="black"/>
<mask id="mask10_6674_644" style="mask-type:alpha" maskUnits="userSpaceOnUse" x="118" y="103" width="35" height="49">
<path d="M118.972 111.177C118.972 111.177 117.486 122.187 121.275 135.021C124.974 147.553 132.848 151.68 132.848 151.68C132.848 151.68 138.864 149.617 143.223 147.956C147.578 146.295 152.048 144.256 152.048 144.256C152.048 144.256 142.303 136.376 139.209 125.43C136.116 114.485 138.867 103.518 138.867 103.518C138.867 103.518 131.073 106.861 126.717 108.465C122.362 110.069 118.976 111.177 118.976 111.177H118.972Z" fill="white"/>
</mask>
<g mask="url(#mask10_6674_644)">
<path d="M138.589 107.289C138.589 107.289 131.586 109.552 125.452 110.472C119.899 111.302 117.532 111.473 118.306 111.348L135.364 104.997L139.263 103.518L138.586 107.289H138.589Z" fill="#45E0A8"/>
<path d="M138.589 107.289C138.589 107.289 131.586 109.552 125.452 110.472C119.899 111.302 117.532 111.473 118.306 111.348L135.364 104.997L139.263 103.518L138.586 107.289H138.589Z" fill="#45E0A8"/>
</g>
<path d="M118.972 111.177C118.972 111.177 117.486 122.187 121.275 135.021C124.974 147.553 132.848 151.68 132.848 151.68C132.848 151.68 138.864 149.617 143.223 147.956C147.578 146.295 152.048 144.256 152.048 144.256C152.048 144.256 142.303 136.376 139.209 125.43C136.116 114.485 138.867 103.518 138.867 103.518C138.867 103.518 131.073 106.861 126.717 108.465C122.362 110.069 118.976 111.177 118.976 111.177H118.972Z" stroke="black" stroke-width="1.2" stroke-linecap="round" stroke-linejoin="round"/>
<path d="M142.236 261.57L270.516 241.047L219.734 223.669L142.236 261.57Z" fill="black" stroke="black" stroke-width="1.2" stroke-linecap="round" stroke-linejoin="round"/>
<path d="M144.542 171.857L142.236 261.57L226.306 242.926L216.327 163L144.542 171.857Z" fill="white" stroke="black" stroke-width="1.2" stroke-linecap="round" stroke-linejoin="round"/>
<path d="M144.541 171.857L138.119 170.128L208.55 161.539L216.327 163L144.541 171.857Z" fill="#45E0A8" stroke="black" stroke-width="1.2" stroke-linecap="round" stroke-linejoin="round"/>
<path d="M138.119 170.128L121.157 246.593L142.236 261.57L144.542 171.857L138.119 170.128Z" fill="#45E0A8" stroke="black" stroke-width="1.2" stroke-linecap="round" stroke-linejoin="round"/>
<path d="M121.157 246.593L132.848 244.07L142.236 261.569" stroke="black" stroke-width="1.2" stroke-linecap="round" stroke-linejoin="round"/>
<path d="M132.848 244.07L140.999 170.902" stroke="black" stroke-width="1.2" stroke-linecap="round" stroke-linejoin="round"/>
<path d="M121.275 246.051L122.198 246.369L132.848 244.07L140.999 170.902L138.119 170.128L121.275 246.051Z" fill="black"/>
<path d="M188.167 240.345L188.135 237.205C191.289 235.947 193.11 235.07 193.602 234.571C194.094 234.076 194.336 233.484 194.333 232.804C194.329 232.408 194.247 231.97 194.083 231.488C193.652 230.38 192.265 227.076 189.913 221.58C186.235 222.232 183.173 222.806 180.725 223.294C178.718 223.697 175.368 224.414 170.677 225.44C167.819 233.459 166.393 237.825 166.4 238.535C166.408 239.215 166.621 239.679 167.042 239.921C167.463 240.164 169.323 240.295 172.62 240.317L172.652 243.457C169.359 243.806 166.208 244.284 163.203 244.886C159.964 245.535 156.674 246.351 153.334 247.335L153.302 244.195C155.647 243.182 157.262 242.249 158.142 241.39C158.738 240.816 159.279 240.025 159.768 239.016C160.769 237.027 163.752 229.514 168.71 216.473C171.854 208.218 176.337 196.036 182.157 179.933L185.29 179.306C187.785 185.465 192.932 196.863 200.737 213.49C205.068 222.738 207.655 227.974 208.507 229.19C209.092 230.041 209.673 230.605 210.25 230.886C210.827 231.168 212.649 231.428 215.714 231.667L215.746 234.807C211.12 235.423 206.821 236.129 202.851 236.927C198.88 237.726 194.037 238.852 188.163 240.342L188.167 240.345ZM180.261 198.652L172.445 220.244L180.208 218.729C182.061 218.358 184.727 217.806 188.206 217.082L180.265 198.656L180.261 198.652Z" fill="#45E0A8"/>
<path d="M157.79 170.221C157.79 170.221 157.818 131.903 172.816 125.348C188.559 118.466 200.99 163.852 200.773 164.921" stroke="black" stroke-width="1.2" stroke-linecap="round" stroke-linejoin="round"/>
<path d="M151.456 168.503C151.456 168.503 155.911 132.904 169.605 126.304C178.162 122.176 184.556 127.726 185.957 131.807C189.471 142.046 194.529 163.253 194.529 163.253" stroke="black" stroke-width="1.2" stroke-linecap="round" stroke-linejoin="round"/>
<path d="M179.271 101.782C185.575 105.828 189.966 111.427 189.243 117.921C188.48 124.778 179.837 129.854 179.837 129.854" fill="#45E0A8"/>
<path d="M179.271 101.782C185.575 105.828 189.966 111.427 189.243 117.921C188.48 124.778 179.837 129.854 179.837 129.854" stroke="black" stroke-width="1.2" stroke-linecap="round" stroke-linejoin="round"/>
<path d="M176.073 106.512C181.067 110.493 184.966 116.299 183.801 124.019C182.603 131.96 174.954 134.565 174.954 134.565" fill="#45E0A8"/>
<path d="M176.073 106.512C181.067 110.493 184.966 116.299 183.801 124.019C182.603 131.96 174.954 134.565 174.954 134.565" stroke="black" stroke-width="1.2" stroke-linecap="round" stroke-linejoin="round"/>
<path d="M170.784 112.311C177.225 117.675 178.158 123.413 177.784 128.374C177.225 135.741 167.944 142.495 163.816 140.906C161.92 140.175 161.888 137.598 165.891 131.878C169.138 127.237 163.428 124.24 163.428 124.24" fill="#45E0A8"/>
<path d="M170.784 112.311C177.225 117.675 178.158 123.413 177.784 128.374C177.225 135.741 167.944 142.495 163.816 140.906C161.92 140.175 161.888 137.598 165.891 131.878C169.138 127.237 163.428 124.24 163.428 124.24" stroke="black" stroke-width="1.2" stroke-linecap="round" stroke-linejoin="round"/>
<path d="M177.225 95.0889C168.899 97.901 157.789 108.825 157.789 108.825" stroke="black" stroke-width="1.2" stroke-linecap="round" stroke-linejoin="round"/>
<path d="M138.424 145.834C140.217 145.309 141.324 143.699 140.896 142.237C140.469 140.774 138.669 140.014 136.876 140.538C135.083 141.063 133.976 142.673 134.403 144.135C134.831 145.598 136.631 146.358 138.424 145.834Z" fill="#45E0A8"/>
</svg>
